<svg xmlns="http://www.w3.org/2000/svg" xmlns:xlink="http://www.w3.org/1999/xlink" width="239" height="72" viewBox="0 0 239 72">
  <defs>
    <clipPath id="clip-path">
      <rect id="Rect치ngulo_35" data-name="Rect치ngulo 35" width="49" height="50" transform="translate(0.051 -0.133)" fill="#fff"/>
    </clipPath>
  </defs>
  <g id="btn_herpetofauna" transform="translate(0.472 -0.41)">
    <rect id="Rect치ngulo_464" data-name="Rect치ngulo 464" width="239" height="72" transform="translate(-0.472 0.41)" fill="rgba(0,0,0,0.5)"/>
    <text id="Herpetofauna" transform="translate(16.528 42.41)" fill="#fff" font-size="18" font-family="Gotham-Bold, Gotham" font-weight="700"><tspan x="0" y="0">Herpetofauna</tspan></text>
    <g id="Grupo_54" data-name="Grupo 54" transform="translate(172.477 11.544)" clip-path="url(#clip-path)">
      <path id="Trazado_141" data-name="Trazado 141" d="M123.105,170.318h-.019q.02.132.029.264.011-.132.033-.264h-.043Z" transform="translate(-98.661 -135.849)" fill="#fff"/>
      <path id="Trazado_142" data-name="Trazado 142" d="M84.844,80.345a1.162,1.162,0,0,0-1.3-.9A1.183,1.183,0,0,0,82.5,80.657c0,.06,0,.115-.06.147l-.734.361a1.55,1.55,0,0,0,0-.184.527.527,0,0,1,.3-.607,1.114,1.114,0,0,0,.437-1.307,1.2,1.2,0,0,0-1.122-.82h-.007a1.2,1.2,0,0,0-1.127.8,1.106,1.106,0,0,0,.418,1.313.569.569,0,0,1,.313.65.875.875,0,0,0,0,.222c.023.166-.035.223-.21.233-.584.032-1.168.087-1.752.131-.546.041-1.092.08-1.713.125.146-.139.24-.227.332-.317a28.981,28.981,0,0,0,2.481-2.725,8.452,8.452,0,0,0,1.132-1.818,1.611,1.611,0,0,0-1.457-2.184h-.055a8,8,0,0,0-1.968.329c-.451.133-.884.316-1.35.5a13.7,13.7,0,0,0,.2-3.137c0-.144.019-.2.081-.2a.438.438,0,0,1,.157.051c.89.406,1.786.8,2.68,1.2a.714.714,0,0,0,.281.075c.15,0,.258-.092.371-.292a11.241,11.241,0,0,0,.724-1.539,5.555,5.555,0,0,0,.412-2.877c-.044-.274-.1-.546-.156-.835l.166,0c.031,0,.061,0,.092,0s.075-.005.11-.005a.49.49,0,0,1,.478.293,1.054,1.054,0,0,0,.937.506,1.241,1.241,0,0,0,.365-.055,1.2,1.2,0,0,0,.832-1.088,1.189,1.189,0,0,0-.769-1.155,1.286,1.286,0,0,0-.45-.082.984.984,0,0,0-.871.456.624.624,0,0,1-.6.348c-.051,0-.1,0-.16-.008-.027,0-.054,0-.081,0a.441.441,0,0,0-.067,0,.334.334,0,0,1-.051,0c-.1,0-.124-.069-.12-.185.009-.28.011-.561,0-.841a.311.311,0,0,1,.194-.339,1.151,1.151,0,0,0,.556-1.328,1.186,1.186,0,0,0-1.144-.877h-.006a1.188,1.188,0,0,0-1.134.867,1.157,1.157,0,0,0,.545,1.334.313.313,0,0,1,.2.333c-.016.288-.01.578,0,.866,0,.114-.02.168-.131.168h-.03c-.083-.006-.167-.009-.251-.009s-.179,0-.268.008h-.031a.233.233,0,0,1-.233-.154,1.118,1.118,0,0,0-.988-.638l-.065,0a1.187,1.187,0,1,0,1.048,1.761c.04-.069.036-.18.161-.18h.007c.078,0,.155,0,.234,0l.369,0c-.28.744-.549,1.45-.807,2.159-.033.091-.075.119-.134.119a.372.372,0,0,1-.09-.015c-.741-.189-1.482-.38-2.226-.56a.2.2,0,0,1-.183-.208c-.072-.788-.158-1.575-.235-2.363a3.19,3.19,0,0,1,.084-1.7.733.733,0,0,0,.034-.169,1.506,1.506,0,0,0-1.367-1.966.293.293,0,0,1-.244-.2,4.808,4.808,0,0,0-1.04-1.549,2.087,2.087,0,0,0-3.05-.024,4.664,4.664,0,0,0-1.051,1.541.366.366,0,0,1-.322.243,1.436,1.436,0,0,0-1.333,1.628,3.441,3.441,0,0,0,.2.989.717.717,0,0,1,.04.313C68.11,67.26,68,68.334,67.9,69.41a.246.246,0,0,1-.223.259c-.672.163-1.342.333-2.012.5a1.206,1.206,0,0,1-.247.048c-.112,0-.141-.077-.227-.306-.242-.645-.482-1.29-.732-1.961l.148,0a.709.709,0,0,0,.072,0,1.258,1.258,0,0,1,.128-.007.56.56,0,0,1,.525.313,1.056,1.056,0,0,0,.913.492,1.206,1.206,0,0,0,.8-.3,1.179,1.179,0,0,0,.03-1.753,1.214,1.214,0,0,0-.832-.333,1.038,1.038,0,0,0-.883.463.652.652,0,0,1-.6.345c-.044,0-.089,0-.137-.007l-.053,0a.291.291,0,0,0-.046,0,.547.547,0,0,1-.08.007c-.125,0-.181-.064-.166-.238a5.479,5.479,0,0,0,0-.767.347.347,0,0,1,.215-.379,1.128,1.128,0,0,0,.541-1.289,1.186,1.186,0,0,0-1.083-.9h-.058a1.2,1.2,0,0,0-1.131.8,1.118,1.118,0,0,0,.43,1.331.53.53,0,0,1,.3.607,2.067,2.067,0,0,0,0,.222c-.005.2.061.455-.038.571a.224.224,0,0,1-.179.06c-.1,0-.217-.023-.322-.023a.539.539,0,0,0-.065,0,.539.539,0,0,1-.065,0c-.147,0-.229-.074-.311-.222a1.117,1.117,0,0,0-.988-.575,1.207,1.207,0,0,0-.3.039,1.184,1.184,0,0,0-.9,1.11,1.2,1.2,0,0,0,.823,1.169,1.236,1.236,0,0,0,.372.057,1.08,1.08,0,0,0,.95-.518.467.467,0,0,1,.432-.283.8.8,0,0,1,.11.008l.038,0,.037,0a.58.58,0,0,1,.084-.007c.116,0,.142.06.1.229a4.8,4.8,0,0,0-.145,1.789,8.954,8.954,0,0,0,1.157,3.232c.114.208.218.3.368.3a.771.771,0,0,0,.3-.082c.631-.279,1.261-.562,1.893-.841.328-.145.657-.287,1.011-.441a15.522,15.522,0,0,0,.2,3.362.348.348,0,0,1-.064-.009c-.068-.027-.136-.057-.2-.085a7.971,7.971,0,0,0-3.063-.711h-.07a1.586,1.586,0,0,0-1.462,2.048,4.728,4.728,0,0,0,.64,1.219,24.6,24.6,0,0,0,3.057,3.5c.078.077.169.141.255.211a.344.344,0,0,1-.165.051h-.026c-.979-.076-1.957-.148-2.935-.231-.517-.044-.505-.052-.521-.581a.47.47,0,0,1,.269-.5,1.132,1.132,0,0,0,.475-1.317,1.2,1.2,0,0,0-1.11-.836H63.1a1.2,1.2,0,0,0-1.133.81,1.113,1.113,0,0,0,.447,1.324.519.519,0,0,1,.286.589c0,.055,0,.111,0,.2-.213-.106-.4-.209-.593-.291a.291.291,0,0,1-.206-.308,1.182,1.182,0,1,0-1.186,1.242,1.212,1.212,0,0,0,.674-.208c.054-.036.1-.106.167-.106a.143.143,0,0,1,.065.018c.262.135.526.266.793.4-.161.2-.3.351-.541.351a.77.77,0,0,1-.219-.035.778.778,0,0,0-.223-.032,1.194,1.194,0,1,0,.607,2.259,1.085,1.085,0,0,0,.637-1.2c-.117-.374.053-.543.273-.741a.1.1,0,0,0,.018-.017c.042-.062.08-.088.119-.088a.271.271,0,0,1,.153.082,9.277,9.277,0,0,0,6.189,2.077H69.6A1.351,1.351,0,0,0,70.962,83.5a1.852,1.852,0,0,0-.069-1.093,8.066,8.066,0,0,0-.812-1.521c-.041-.064-.117-.116-.1-.235a4.952,4.952,0,0,0,2.217.759h.01a5.019,5.019,0,0,0,2.237-.764.415.415,0,0,1-.115.238,6.971,6.971,0,0,0-.849,1.638,1.486,1.486,0,0,0,1.478,2.058h.057c.319,0,.638-.017.956-.044a8.958,8.958,0,0,0,5.219-2.054.217.217,0,0,1,.131-.066c.043,0,.081.029.124.084a.846.846,0,0,0,.158.157.4.4,0,0,1,.146.5,1.163,1.163,0,0,0,1.12,1.422h.018a1.131,1.131,0,0,0,1.077-.67,1.191,1.191,0,0,0-1.034-1.7,1.4,1.4,0,0,0-.344.045.723.723,0,0,1-.167.056.136.136,0,0,1-.1-.053c-.1-.111-.22-.206-.351-.326.28-.14.51-.249.733-.371a.291.291,0,0,1,.139-.043.283.283,0,0,1,.165.065,1.157,1.157,0,0,0,.68.234,1.245,1.245,0,0,0,.578-.153,1.38,1.38,0,0,0,.618-.792v-.5c-.012-.01-.03-.018-.035-.03" transform="translate(-47.747 -48.134)" fill="#fff"/>
      <path id="Trazado_143" data-name="Trazado 143" d="M24.517,0A24.517,24.517,0,1,0,49.034,24.517,24.517,24.517,0,0,0,24.517,0M38.386,31.654v.72l-.082.209a2.69,2.69,0,0,1-.871,1.224A2.39,2.39,0,0,1,35.2,37.053h-.031a2.392,2.392,0,0,1-2.161-1.466A10.507,10.507,0,0,1,28.385,37c-.382.032-.728.048-1.057.048h-.065A2.767,2.767,0,0,1,25,35.96a2.616,2.616,0,0,1-.489-1.377,3.207,3.207,0,0,1-.073.464,2.532,2.532,0,0,1-2.513,2h-.187a10.771,10.771,0,0,1-5.7-1.458A2.436,2.436,0,0,1,14.882,36.8a2.39,2.39,0,0,1-1.062.252,2.384,2.384,0,0,1-2.214-3.248,2.409,2.409,0,0,1-.579-.625,2.382,2.382,0,0,1,2-3.662,2.463,2.463,0,0,1,.306.019,2.425,2.425,0,0,1,1.083-.987q-.032-.087-.061-.177A2.8,2.8,0,0,1,15.6,25.145c-.02-.032-.039-.066-.058-.1a10.189,10.189,0,0,1-1.3-3.664q-.012-.1-.02-.2a2.381,2.381,0,0,1-.4.033A2.419,2.419,0,0,1,13.1,21.1a2.383,2.383,0,0,1,.735-4.649h.011a2.39,2.39,0,0,1,2.362-2.774c.039,0,.077,0,.116,0a2.393,2.393,0,0,1,2.227,2.762h.007a2.406,2.406,0,0,1,.572.069c-.012-.1-.019-.208-.022-.312a2.578,2.578,0,0,1,1.93-2.755,5.588,5.588,0,0,1,1.153-1.566,3.276,3.276,0,0,1,4.7.036A5.721,5.721,0,0,1,28,13.457a2.689,2.689,0,0,1,1.472,1.015,2.8,2.8,0,0,1,.434,2.042,2.311,2.311,0,0,1,.533-.062h.043a2.385,2.385,0,0,1,2.333-2.774h.014a2.393,2.393,0,0,1,2.352,2.769,2.462,2.462,0,0,1,.864.158,2.38,2.38,0,0,1-.132,4.5,2.44,2.44,0,0,1-1.114.075,7.816,7.816,0,0,1-.524,2.182,12.475,12.475,0,0,1-.8,1.7q-.025.044-.05.085a2.877,2.877,0,0,1,.921.892,2.717,2.717,0,0,1,.272,2.511,2.422,2.422,0,0,1,1.076.984,2.441,2.441,0,0,1,.326-.022,2.35,2.35,0,0,1,2.117,1.378l.243.205Z" transform="translate(-0.06 0.587)" fill="#fff"/>
    </g>
  </g>
</svg>
