<svg xmlns="http://www.w3.org/2000/svg" xmlns:xlink="http://www.w3.org/1999/xlink" width="239" height="72" viewBox="0 0 239 72">
  <defs>
    <clipPath id="clip-path">
      <rect id="Rect치ngulo_58" data-name="Rect치ngulo 58" width="49" height="50" transform="translate(0.051 -0.132)" fill="#f2b229"/>
    </clipPath>
  </defs>
  <g id="btn_especies_amenazadas" data-name="btn_especies amenazadas" transform="translate(0 -0.41)">
    <rect id="Rect치ngulo_46" data-name="Rect치ngulo 46" width="239" height="72" transform="translate(0 0.41)" fill="rgba(0,0,0,0.5)"/>
    <text id="Especies_Amenazadas" data-name="Especies 
Amenazadas" transform="translate(16 28.41)" fill="#fff" font-size="18" font-family="Gotham-Bold, Gotham" font-weight="700"><tspan x="0" y="0">Especies </tspan><tspan x="0" y="26">Amenazadas</tspan></text>
    <g id="Grupo_1771" data-name="Grupo 1771" transform="translate(172.949 11.543)">
      <g id="Grupo_87" data-name="Grupo 87" transform="translate(0 0)" clip-path="url(#clip-path)">
        <path id="Trazado_246" data-name="Trazado 246" d="M81.12,68.489q-.275-.471-.549-.943l-2.957-5.122Q74.356,56.78,71.1,51.135a3.115,3.115,0,0,0-.753-.924,2.667,2.667,0,0,0-2.164-.515,2.771,2.771,0,0,0-1.891,1.383c-1.2,2.1-2.435,4.235-3.629,6.3-1.434,2.476-2.917,5.037-4.351,7.567-.383.677-.791,1.348-1.185,2A32.172,32.172,0,0,0,54.635,71.6v.7a1.09,1.09,0,0,1,.077.323,2.654,2.654,0,0,0,2.661,2.062q10.613.007,21.226,0H80a2.711,2.711,0,0,0,1.154-.242,2.676,2.676,0,0,0,1.439-1.6,2.617,2.617,0,0,0-.183-2.1c-.411-.755-.855-1.515-1.285-2.25M68.07,57.512c.4.021.812.019,1.218,0,.214-.01.27.045.269.265-.01,1.846-.006,3.693-.006,5.539,0,.889-.005,1.779,0,2.668,0,.185-.04.247-.235.24-.425-.016-.851-.014-1.276,0-.187.006-.24-.043-.239-.235.009-1.382,0-2.765,0-4.147,0-1.353.005-2.707-.005-4.06,0-.212.042-.281.265-.27m.6,12.768a1.16,1.16,0,1,1,1.171-1.149A1.165,1.165,0,0,1,68.67,70.28" transform="translate(-44.022 -39.537)" fill="#f2b229"/>
        <path id="Trazado_247" data-name="Trazado 247" d="M24.818,0A24.818,24.818,0,1,0,49.636,24.818,24.818,24.818,0,0,0,24.818,0M40.484,33.7a4.3,4.3,0,0,1-4.121,2.946h-1.4l-11.047,0q-5.091,0-10.181,0a4.285,4.285,0,0,1-4.187-3.157l-.16-.073V31.642l.055-.141a32.943,32.943,0,0,1,2.669-5.044c.388-.64.789-1.3,1.161-1.957,1.437-2.537,2.923-5.1,4.359-7.58,1.192-2.058,2.425-4.187,3.623-6.287A4.418,4.418,0,0,1,24.24,8.467a4.277,4.277,0,0,1,3.469.831,4.652,4.652,0,0,1,1.152,1.385q3.257,5.645,6.516,11.289l2.957,5.122q.27.469.544.935c.436.746.887,1.517,1.309,2.293a4.211,4.211,0,0,1,.3,3.376" transform="translate(-0.39 0.111)" fill="#f2b229"/>
      </g>
    </g>
  </g>
</svg>
