<svg id="ico_lupa" xmlns="http://www.w3.org/2000/svg" width="87.883" height="87.883" viewBox="0 0 87.883 87.883">
  <g id="Grupo_1767" data-name="Grupo 1767">
    <path id="Trazado_304" data-name="Trazado 304" d="M87.883,43.941A43.941,43.941,0,1,1,43.941,0,43.941,43.941,0,0,1,87.883,43.941" fill="#fff"/>
  </g>
  <path id="Trazado_305" data-name="Trazado 305" d="M87.244,55.049c15.64,1.257,24.982,18.633,16.836,32.187-5.657,10.118-19.472,13.669-29.313,7.541-.79-.464-.785-.474-1.424.165-3.061,3.119-8.7,8.64-11.767,11.758a3.721,3.721,0,1,1-5.4-5.118c.04-.042.08-.083.121-.122L68.545,89.2A21.432,21.432,0,0,1,84.1,55.049ZM102.2,76.428A16.488,16.488,0,0,0,85.76,59.89h-.082c-21.893.765-21.95,32.252-.016,33.059A16.49,16.49,0,0,0,102.2,76.5v-.075" transform="translate(-37.179 -37.514)" fill="#002e0f"/>
</svg>
