<svg id="ico_información" xmlns="http://www.w3.org/2000/svg" width="87.883" height="87.883" viewBox="0 0 87.883 87.883">
  <g id="Grupo_1767" data-name="Grupo 1767">
    <path id="Trazado_304" data-name="Trazado 304" d="M87.883,43.941A43.941,43.941,0,1,1,43.941,0,43.941,43.941,0,0,1,87.883,43.941" fill="#fff"/>
  </g>
  <g id="Icon_ionic-ios-help-circle-outline" data-name="Icon ionic-ios-help-circle-outline" transform="translate(9.76 9.76)">
    <path id="Trazado_2065" data-name="Trazado 2065" d="M34.182,7.522A26.664,26.664,0,0,1,53.036,53.036,26.664,26.664,0,0,1,15.327,15.327,26.483,26.483,0,0,1,34.182,7.522m0-4.147A30.807,30.807,0,1,0,64.988,34.182,30.8,30.8,0,0,0,34.182,3.375Z" fill="#002e0f"/>
    <path id="Trazado_2066" data-name="Trazado 2066" d="M25.648,11.25c7.041,0,11.885,3.905,11.885,9.519,0,3.718-1.8,6.29-5.276,8.336-3.267,1.9-4.375,3.286-4.375,5.689v1.483H21.367l-.056-1.615c-.319-3.868,1.033-6.271,4.431-8.261,3.173-1.9,4.506-3.1,4.506-5.426s-2.253-4.037-5.051-4.037a4.75,4.75,0,0,0-5.032,4.619H13.5C13.631,15.512,18.1,11.25,25.648,11.25ZM20.71,43.432A4.031,4.031,0,1,1,24.728,47.3,3.932,3.932,0,0,1,20.71,43.432Z" transform="translate(8.665 4.907)" fill="#002e0f"/>
  </g>
</svg>
